<?xml version="1.0" encoding="UTF-8" standalone="no"?>
<!-- Created with Inkscape (http://www.inkscape.org/) -->

<svg
   xmlns:dc="http://purl.org/dc/elements/1.1/"
   xmlns:cc="http://creativecommons.org/ns#"
   xmlns:rdf="http://www.w3.org/1999/02/22-rdf-syntax-ns#"
   xmlns:svg="http://www.w3.org/2000/svg"
   xmlns="http://www.w3.org/2000/svg"
   xmlns:sodipodi="http://sodipodi.sourceforge.net/DTD/sodipodi-0.dtd"
   xmlns:inkscape="http://www.inkscape.org/namespaces/inkscape"
   width="200mm"
   height="200mm"
   viewBox="0 0 200 200"
   version="1.1"
   id="svg823"
   inkscape:version="0.92.2 5c3e80d, 2017-08-06"
   sodipodi:docname="hex_trackeR.svg">
  <defs
     id="defs817" />
  <sodipodi:namedview
     id="base"
     pagecolor="#ffffff"
     bordercolor="#666666"
     borderopacity="1.0"
     inkscape:pageopacity="0.0"
     inkscape:pageshadow="2"
     inkscape:zoom="0.98994949"
     inkscape:cx="152.43949"
     inkscape:cy="337.09353"
     inkscape:document-units="mm"
     inkscape:current-layer="g2575"
     showgrid="true"
     inkscape:pagecheckerboard="false"
     borderlayer="false"
     inkscape:showpageshadow="false"
     showguides="true"
     inkscape:window-width="1680"
     inkscape:window-height="1028"
     inkscape:window-x="0"
     inkscape:window-y="0"
     inkscape:window-maximized="1"
     inkscape:measure-start="-150,670"
     inkscape:measure-end="-145.462,665.691">
    <inkscape:grid
       type="xygrid"
       id="grid1405" />
  </sodipodi:namedview>
  <metadata
     id="metadata820">
    <rdf:RDF>
      <cc:Work
         rdf:about="">
        <dc:format>image/svg+xml</dc:format>
        <dc:type
           rdf:resource="http://purl.org/dc/dcmitype/StillImage" />
        <dc:title />
      </cc:Work>
    </rdf:RDF>
  </metadata>
  <g
     inkscape:label="Layer 1"
     inkscape:groupmode="layer"
     id="layer1"
     transform="translate(0,-97)">
    <g
       id="g2575">
      <path
         id="path1388"
         d="M 365.22266 45.417969 L 70.195312 215.90625 L 70.328125 556.65039 L 365.48828 726.90625 L 660.51562 556.41992 L 660.38281 215.67578 L 365.22266 45.417969 z M 366.32031 71.464844 L 636.98438 227.5918 L 637.10547 540.05859 L 366.56445 696.39648 L 95.900391 540.26953 L 95.777344 227.80469 L 366.32031 71.464844 z "
         style="opacity:1;fill:#222d32;fill-opacity:1;stroke-width:0.61239851"
         transform="matrix(0.26458333,0,0,0.26458333,0,97)"
         inkscape:export-xdpi="96"
         inkscape:export-ydpi="96" />
      <path
         style="fill-opacity:1;stroke-width:0.09217392;fill:#222d32"
         inkscape:connector-curvature="0"
         d="m 114.47629,247.31456 c -1.50916,-0.006 -2.95232,0.27236 -4.28019,0.78301 l -7.16008,-11.53584 a 2.2121742,2.2121742 0 0 0 -1.87961,-1.04554 h -5.899143 c -0.814533,0 -1.474774,0.66024 -1.474774,1.47479 v 1.47477 c 0,0.81455 0.660241,1.47479 1.474774,1.47479 h 4.668521 l 1.373032,2.21217 H 90.833018 v -1.47477 c 0,-0.81457 -0.660241,-1.47479 -1.474784,-1.47479 h -8.061439 c -1.238911,0 -2.283793,1.01383 -2.26158,2.25246 0.02138,1.2023 1.002484,2.17189 2.211715,2.17189 h 4.491266 l -2.71148,4.38011 c -1.238174,-0.44522 -2.57202,-0.68974 -3.962742,-0.69317 -6.472914,-0.0156 -11.78969,5.25502 -11.82748,11.72785 -0.03825,6.54832 5.2588,11.86869 11.798261,11.86869 5.497438,0 10.116827,-3.76005 11.426525,-8.84871 h 4.796092 a 2.2121742,2.2121742 0 0 0 1.880889,-1.04773 l 7.923479,-12.79955 1.37689,2.21835 c -2.34629,2.16128 -3.81463,5.26138 -3.80742,8.70462 0.0136,6.34462 5.33676,11.71081 11.68111,11.77237 6.50803,0.0631 11.81494,-5.14358 11.91394,-11.61353 0.1,-6.53892 -5.21023,-11.95682 -11.74997,-11.98224 z m -30.026502,6.79974 c 0.896576,0.97051 1.536817,2.18093 1.810481,3.52363 h -3.991684 z m -5.415033,12.37233 c -4.065976,0 -7.373914,-3.30795 -7.373914,-7.37392 0,-4.06596 3.307938,-7.37391 7.373914,-7.37391 0.54097,0 1.067926,0.0602 1.576084,0.17136 l -4.194375,6.77561 c -0.910772,1.471 0.149042,3.3765 1.880898,3.3765 h 7.493742 c -1.140192,2.60162 -3.738759,4.42436 -6.756349,4.42436 z m 14.990239,-8.8487 h -3.283597 c -0.365009,-2.92707 -1.802552,-5.52067 -3.90661,-7.37631 l 2.280938,-3.68458 h 11.756505 z m 20.007036,8.83818 c -3.78247,-0.19954 -6.82541,-3.28987 -6.97085,-7.0748 -0.0748,-1.9468 0.61138,-3.73469 1.78218,-5.09381 l 4.09556,6.59836 c 0.42952,0.69205 1.33874,0.90479 2.03079,0.47524 l 1.25301,-0.77766 c 0.69202,-0.42955 0.90485,-1.33874 0.47524,-2.03077 l -4.09878,-6.60362 a 7.3647888,7.3647888 0 0 1 1.83037,-0.23016 c 4.06599,0 7.37392,3.30793 7.37392,7.37391 -8e-5,4.19761 -3.52583,7.5874 -7.77144,7.36331 z"
         id="path2463"
         inkscape:export-xdpi="96"
         inkscape:export-ydpi="96" />
      <path
         style="fill-opacity:1;stroke-width:0.09807621;fill:#222d32"
         inkscape:connector-curvature="0"
         d="m 49.359607,209.15835 c 2.600004,0 4.707658,-2.10767 4.707658,-4.70767 0,-2.59999 -2.107654,-4.70766 -4.707658,-4.70766 -2.599999,0 -4.707657,2.10767 -4.707657,4.70766 0,2.6 2.107658,4.70767 4.707657,4.70767 z m -15.526446,21.72093 -1.451527,3.38559 h -6.560319 c -1.733008,0 -3.138436,1.40543 -3.138436,3.13845 0,1.733 1.405428,3.13843 3.138436,3.13843 h 7.596004 c 1.887967,0 3.587628,-1.12199 4.326141,-2.85304 l 0.862091,-2.01252 -1.046471,-0.61788 c -1.698684,-1.00331 -2.948173,-2.4882 -3.725919,-4.17903 z m 26.510985,-9.16815 h -4.318299 l -2.555864,-5.22257 c -1.225952,-2.50586 -3.476802,-4.33792 -6.059149,-4.996 l -6.971257,-2.07333 c -2.775558,-0.66693 -5.665863,-0.0539 -7.928483,1.68103 l -3.890683,2.98249 c -1.376007,1.05431 -1.636893,3.02368 -0.580609,4.3997 1.056279,1.37601 3.02467,1.63395 4.399699,0.58061 l 3.892645,-2.9825 c 0.752242,-0.57765 1.710447,-0.7846 2.478385,-0.60217 l 1.441718,0.42857 -3.673935,8.57089 c -1.237721,2.89127 -0.128477,6.27786 2.579405,7.87649 l 8.334519,4.92049 -2.694155,8.60424 c -0.517842,1.65355 0.403094,3.41402 2.056657,3.93186 0.312863,0.098 0.628668,0.14516 0.939571,0.14516 1.334818,0 2.572539,-0.86014 2.993288,-2.20182 l 3.103129,-9.91157 c 0.579632,-2.03704 -0.283439,-4.22514 -2.122367,-5.33437 l -6.006187,-3.54448 3.070764,-7.67739 1.988004,4.06328 c 0.784611,1.60256 2.44406,2.63728 4.228067,2.63728 h 5.295137 c 1.733008,0 3.13844,-1.40544 3.13844,-3.13844 0,-1.73301 -1.405432,-3.13745 -3.13844,-3.13745 z"
         id="path2474"
         inkscape:export-xdpi="96"
         inkscape:export-ydpi="96" />
      <path
         style="fill-opacity:1;stroke-width:0.07840843;fill:#222d32"
         inkscape:connector-curvature="0"
         d="m 135.46667,229.1291 c 0.27758,0.25561 1.19731,0.73862 2.69648,0.73862 1.49917,0 2.41968,-0.48301 2.69646,-0.73862 1.2561,-1.1581 2.7051,-1.77045 4.19171,-1.77045 h 1.27806 c 1.48663,0 2.93641,0.61235 4.19172,1.77045 0.27756,0.25561 1.1973,0.73862 2.69647,0.73862 1.49917,0 2.41969,-0.48301 2.69647,-0.73862 1.16515,-1.07498 2.49965,-1.65599 3.87259,-1.73753 l -8.84761,-6.31972 1.41135,-1.00833 c 0.28542,-0.20229 0.64922,-0.276 0.98952,-0.20466 l 7.86828,1.68815 c 2.03157,0.43359 4.03333,-0.86015 4.46928,-2.8917 0.43518,-2.03237 -0.85856,-4.03334 -2.8917,-4.46929 l -7.86829,-1.68814 c -2.40949,-0.51592 -4.94129,0.0104 -6.94385,1.44116 l -6.27423,4.48261 c -0.81389,0.57943 -1.51799,1.28903 -2.09509,2.11232 l -5.38116,7.68716 c 0.42888,0.25326 0.84836,0.54338 1.24354,0.90797 z m 34.05985,3.24768 h -1.25453 c -2.04176,0 -3.5911,-0.66021 -4.39793,-1.40351 -0.69783,-0.64373 -1.54151,-1.10555 -2.49103,-1.10555 h -1.27806 c -0.94953,0 -1.79321,0.46182 -2.49104,1.10555 -0.80526,0.7433 -2.3546,1.40351 -4.39636,1.40351 -2.04177,0 -3.59111,-0.66021 -4.39794,-1.40351 -0.69782,-0.64373 -1.5415,-1.10555 -2.49103,-1.10555 h -1.27806 c -0.94952,0 -1.7932,0.46182 -2.49104,1.10555 -0.80525,0.7433 -2.3546,1.40351 -4.39635,1.40351 -2.04176,0 -3.59111,-0.66021 -4.39794,-1.40351 -0.69783,-0.64373 -1.5415,-1.10555 -2.49103,-1.10555 h -1.27806 c -0.94951,0 -1.79319,0.46182 -2.49104,1.10555 -0.80525,0.7433 -2.3546,1.40351 -4.39636,1.40351 h -1.25453 c -0.69313,0 -1.25454,0.5614 -1.25454,1.25453 v 2.50907 c 0,0.69314 0.56141,1.25454 1.25454,1.25454 h 1.25453 c 3.02814,0 5.70188,-0.95579 7.52722,-2.49653 1.82534,1.54152 4.49908,2.49653 7.52721,2.49653 3.02814,0 5.70186,-0.95579 7.52721,-2.49653 1.82535,1.54152 4.49908,2.49653 7.52721,2.49653 3.02814,0 5.70186,-0.95579 7.52722,-2.49653 1.82534,1.54152 4.49906,2.49653 7.5272,2.49653 h 1.25453 c 0.69314,0 1.25454,-0.5614 1.25454,-1.25454 v -2.50907 c 0,-0.69313 -0.5614,-1.25453 -1.25454,-1.25453 z m -40.14512,-7.52722 c 3.46409,0 6.27268,-2.80859 6.27268,-6.27266 0,-3.46409 -2.80859,-6.27268 -6.27268,-6.27268 -3.46408,0 -6.27268,2.80859 -6.27268,6.27268 0,3.46407 2.8086,6.27266 6.27268,6.27266 z"
         id="path2"
         inkscape:export-xdpi="96"
         inkscape:export-ydpi="96" />
      <g
         aria-label="trackeR"
         style="font-style:normal;font-variant:normal;font-weight:normal;font-stretch:normal;font-size:20.11932564px;line-height:1.25;font-family:'M+ 2p';-inkscape-font-specification:'M+ 2p';letter-spacing:0px;word-spacing:0px;fill:#222d32;fill-opacity:1;stroke:none;stroke-width:0.50298315"
         id="text2556">
        <path
           d="m 63.830453,165.97941 h 3.536244 v 1.91629 h -3.536244 v 4.20794 q 0,1.16558 0.296333,1.58044 0.296333,0.39511 1.0668,0.39511 0.948267,0 1.778,-0.33584 l 0.335844,1.91629 q -1.224844,0.39511 -2.647244,0.39511 -1.817511,0 -2.647245,-0.80998 -0.809977,-0.80998 -0.809977,-2.68675 v -4.66232 h -2.133601 v -1.91629 h 2.133601 v -3.75355 h 2.627489 z"
           style="font-style:normal;font-variant:normal;font-weight:bold;font-stretch:normal;font-size:19.75555611px;font-family:'M+ 2p';-inkscape-font-specification:'M+ 2p Bold';fill:#222d32;fill-opacity:1;stroke-width:0.50298315"
           id="path821" />
        <path
           d="m 70.096976,165.5843 h 2.449689 l 0.03951,1.97556 h 0.03951 q 1.758245,-2.17311 4.721578,-2.17311 v 2.09409 q -2.192866,0 -3.417711,1.0668 -1.205089,1.04704 -1.205089,2.82504 v 4.48451 h -2.627489 z"
           style="font-style:normal;font-variant:normal;font-weight:bold;font-stretch:normal;font-size:19.75555611px;font-family:'M+ 2p';-inkscape-font-specification:'M+ 2p Bold';fill:#222d32;fill-opacity:1;stroke-width:0.50298315"
           id="path823" />
        <path
           d="m 83.235963,165.38675 q 2.350911,0 3.3782,0.92851 1.027289,0.90875 1.027289,2.96333 v 3.81283 q 0,1.40264 0.296334,2.76577 h -2.429934 q -0.118533,-0.65193 -0.1778,-1.52117 h -0.03951 q -0.553156,0.80997 -1.501422,1.26435 -0.928511,0.45438 -2.034822,0.45438 -1.442156,0 -2.311401,-0.79022 -0.849488,-0.80998 -0.849488,-2.23238 0,-1.71873 1.442155,-2.74602 1.461911,-1.04705 4.188178,-1.04705 h 0.849489 v -0.0593 q 0,-1.04705 -0.414867,-1.46192 -0.414866,-0.41486 -1.481666,-0.41486 -1.936045,0 -3.654778,0.889 l -0.375356,-1.91629 q 1.876778,-0.889 4.0894,-0.889 z m -2.232378,7.44784 q 0,0.63218 0.375356,0.98778 0.375356,0.3556 1.027289,0.3556 1.126067,0 1.896533,-0.73095 0.770467,-0.73096 0.770467,-1.83727 v -0.67169 h -0.849489 q -1.560689,0 -2.390422,0.5334 -0.829734,0.51364 -0.829734,1.36313 z"
           style="font-style:normal;font-variant:normal;font-weight:bold;font-stretch:normal;font-size:19.75555611px;font-family:'M+ 2p';-inkscape-font-specification:'M+ 2p Bold';fill:#222d32;fill-opacity:1;stroke-width:0.50298315"
           id="path825" />
        <path
           d="m 98.016516,173.4075 0.592667,1.91629 q -1.619956,0.73096 -3.358445,0.73096 -2.469445,0 -3.970867,-1.44216 -1.501422,-1.44215 -1.501422,-3.89184 0,-2.50896 1.442156,-3.9116 1.461911,-1.4224 4.030133,-1.4224 1.738489,0 3.358445,0.73095 l -0.592667,1.9558 q -1.2446,-0.7112 -2.647245,-0.7112 -1.402644,0 -2.192866,0.86925 -0.770467,0.86924 -0.770467,2.4892 0,1.58044 0.809978,2.4892 0.829733,0.90875 2.153355,0.90875 1.4224,0 2.647245,-0.7112 z"
           style="font-style:normal;font-variant:normal;font-weight:bold;font-stretch:normal;font-size:19.75555611px;font-family:'M+ 2p';-inkscape-font-specification:'M+ 2p Bold';fill:#222d32;fill-opacity:1;stroke-width:0.50298315"
           id="path827" />
        <path
           d="m 103.82589,171.31342 h -0.0395 v 4.54377 h -2.56822 v -14.81666 h 2.56822 v 8.55415 h 0.0395 l 3.9116,-4.01038 h 3.06211 l -4.87963,4.87963 4.9784,5.39326 h -3.06211 z"
           style="font-style:normal;font-variant:normal;font-weight:bold;font-stretch:normal;font-size:19.75555611px;font-family:'M+ 2p';-inkscape-font-specification:'M+ 2p Bold';fill:#222d32;fill-opacity:1;stroke-width:0.50298315"
           id="path829" />
        <path
           d="m 114.14724,169.89102 h 4.82035 q -0.0198,-1.28412 -0.65193,-1.95581 -0.61242,-0.69144 -1.73849,-0.69144 -1.08656,0 -1.73849,0.69144 -0.63218,0.69145 -0.69144,1.95581 z m 0,1.75824 q 0.0988,1.16558 0.889,1.85702 0.80997,0.67169 2.03482,0.67169 1.46191,0 2.90407,-0.73095 l 0.59266,1.81751 q -1.778,0.79022 -3.75355,0.79022 -2.33116,0 -3.79307,-1.44216 -1.44216,-1.44215 -1.44216,-3.89184 0,-2.4892 1.34338,-3.9116 1.34338,-1.4224 3.63502,-1.4224 2.29165,0 3.556,1.36313 1.28412,1.36313 1.28412,3.9116 0,0.49389 -0.0593,0.98778 z"
           style="font-style:normal;font-variant:normal;font-weight:bold;font-stretch:normal;font-size:19.75555611px;font-family:'M+ 2p';-inkscape-font-specification:'M+ 2p Bold';fill:#222d32;fill-opacity:1;stroke-width:0.50298315"
           id="path831" />
        <path
           d="m 127.88352,163.58899 h -1.4224 v 4.54378 h 1.16558 q 3.51649,0 3.51649,-2.44969 0,-1.08655 -0.75071,-1.58044 -0.75071,-0.51365 -2.50896,-0.51365 z m -1.4224,6.63787 v 5.63033 h -2.72626 v -14.42155 h 3.95111 q 3.23991,0 4.70182,1.00753 1.48167,0.98778 1.48167,2.98309 0,1.38289 -0.77047,2.42993 -0.75071,1.04705 -2.05458,1.46191 v 0.0395 q 0.94827,0.55315 1.63971,2.35091 l 1.58045,4.14866 h -2.8448 l -1.50142,-4.0894 q -0.3556,-0.94826 -0.80998,-1.2446 -0.45438,-0.29633 -1.56069,-0.29633 z"
           style="font-style:normal;font-variant:normal;font-weight:bold;font-stretch:normal;font-size:19.75555611px;font-family:'M+ 2p';-inkscape-font-specification:'M+ 2p Bold';fill:#222d32;fill-opacity:1;stroke-width:0.50298315"
           id="path833" />
      </g>
    </g>
  </g>
</svg>
